<?xml version="1.0" encoding="UTF-8"?>
<svg id="Layer_1" data-name="Layer 1" xmlns="http://www.w3.org/2000/svg" viewBox="0 0 181.42 181.42">
  <defs>
    <style>
      .cls-1 {
        fill: #f5f5ed;
        stroke: #000;
        stroke-miterlimit: 10;
        stroke-width: .25px;
      }
    </style>
  </defs>
  <path class="cls-1" d="M94.51,11.25h45.59c3.07.71,11.29,3.04,18.24,10.64,7.52,8.23,8.82,17.47,9.12,20.52v98.03c.07,1.96.22,12.05-7.6,20.52-8.11,8.78-18.68,9.18-20.52,9.22H41.31c-2.23-.12-11.46-.87-19-8.46-8.53-8.59-8.41-19.4-8.36-21.28,0-33.18,0-66.36,0-99.55.48-3.11,2.36-12.61,10.65-20.52,6.76-6.44,14.22-8.45,17.48-9.12h52.43Z"/>
  <g>
    <path d="M71.87,32.21l-31.89,18.24v71.86l31.81,19.51c.63.39,1.44-.07,1.44-.81v-55.88s-10.17-5.93-10.17-5.93l10.16-6.46.06-39.71c0-.73-.78-1.18-1.42-.82Z"/>
    <path d="M109.55,32.21l31.89,18.24v71.86l-31.81,19.51c-.63.39-1.44-.07-1.44-.81v-55.88s10.17-5.93,10.17-5.93l-10.16-6.46-.06-39.71c0-.73.78-1.18,1.42-.82Z"/>
    <path d="M83.29,101.66s4.77-5.2,6.95-5.15c2.05.04,6.99,5.15,6.99,5.15v43.17s-5.02,4.48-7.11,4.51c-2.05.03-6.83-4.62-6.83-4.62v-43.06Z"/>
  </g>
</svg>